<svg xmlns="http://www.w3.org/2000/svg" viewBox="0 0 492.1 297.6" fill="#fff">
  <path d="M413.5 268.7c-.2-.1-.5-.4-.7-.3-1.4.4-2.4-.4-3.3-1.1-3.2-2.1-6.5-4.1-9.9-6-2.2-1.2-4.5-2.2-6.8-3.3-4.6-2.1-9.3-4.1-14-5.9-1.8-.7-3.7-1.3-5.5-1.9-7.3-2.4-14.7-4.3-22.1-6-4.1-.9-8.3-1.7-12.4-2.5-1.7-.4-3.4-1-5.3-.7-.6.1-1.1-.5-1.8-.5l-6.7-.9c-3.5-.5-7-.6-10.5-1.2-1.8-.3-3.6-.2-5.4-.3-2.2-.2-4.5-.3-6.8-.4-4.3-.2-8.6-.3-12.9-.6-3-.2-6.1-.1-9.2-.1-4.2 0-8.4-.3-12.6-.6-3.4-.2-6.7-.5-10.1-1-1.9-.3-3.8-.6-5.6-1.1-1.8-.5-3.7-.8-5.5-1.4-2.9-.9-5.8-1.9-8.6-3.1-.4-.2-.8-.3-1.4-.3.4.6.8 1.2 1.3 1.7.8.8 1.4 1.7 2.2 2.5 4.8 5.3 9.8 10.3 14.9 15.2 2.8 2.7 5.8 5.2 8.9 7.6l5.7 4.2c2.3 1.7 4.6 3.3 7 4.9 2.3 1.5 4.6 2.9 6.9 4.4 2.7 1.7 5.5 3.1 8.3 4.6 2.7 1.4 5.4 2.8 8.3 3.8 2.1.8 4.1 1.6 6.1 2.5 1.3.6 2.6.8 3.9 1.4.4.2.9.1 1.4 0 .4-.1 1-.3.6.6 0 0 .1.2.2.2 1.2.2 2.2 1.2 3.6 1.1.5 0 1.1.1 1.5.3 3.5 1.5 7.3 2.2 11 3 2.9.6 5.8 1.1 8.7 1.4 3.2.3 6.4.4 9.6.2 2.9-.2 5.9-.5 8.6-1.9 1.2-.6 2.5-1 3.8-1.3.1.7-.4.8-.7 1-4.4 1.8-8.8 3.2-13.6 3.3-.3 0-.6 0-.9.1-2.5.8-5.1.8-7.6 1.4-.6.1-1.2.1-1.7.1-2.3 0-4.6.1-7 0-4-.2-8-.5-11.9-1.3-6.6-1.4-12.9-3.5-19.1-6-4.1-1.6-8.1-3.6-12-5.6-6.8-3.3-13.1-7.5-19.2-11.9-4.3-3.1-8.5-6.5-12.4-10.2-3.3-3.1-6.8-6-9.9-9.3-4.6-4.8-9.1-9.7-13.1-15-2.2-3-4.6-5.9-6.9-8.8-.4-.5-.8-1-1.5-1.1-1.6-.2-3-.9-4.6-1.3-.9-.3-1.7-.2-2.6.2-3 1.5-6.3 1.8-9.7 2.2-.3 0-.6.1-.7-.3-.1-.3.2-.4.5-.5 1-.3 1.9-.5 2.9-.7 1.9-.4 3.7-1.2 5.5-2.3-1.6-.9-3.1-1.6-4.6-2.4-3.4-1.9-6.6-4-9.6-6.6-3.8-3.3-6.6-7.3-9.1-11.4-.9-1.5-1.6-3.2-2.4-4.8-.2-.5-.4-1-.8-1.4-1 1.8-1.6 3.7-2.4 5.5-2.1 5-4.4 9.8-7 14.5-.4.7-.7 1.4-1.1 2.1-.5 1.1-.4 1.5.7 2 1.8.8 3.7 1.6 5.6 2.3 4.1 1.5 8.4 2.2 12.7 3.1 1.5.3 3 .1 4.6.2h1.1c.5 0 1.2-.1 1.1.5 0 .6-.7.4-1.2.4-3.9.4-7.7 0-11.5-.4-3.9-.4-7.5-1.9-11-3.4-.9-.4-1.8-.9-2.7-1.3-1.1-.5-1.2-.5-1.7.5-2.1 4.1-4.7 8-7 12-.5.9-1.1 1.7-1.6 2.5s-.2 1.3.8 1.3c.3 0 .6-.1.9-.1 6.7-1.5 13.6-1.5 20.4-1.4 2 0 3.8.7 5.8 1 .5.1.8.4 1.2.8 1.8 1.6 3.3 3.4 4.8 5.2.7.9 1.4 1.7 2.2 2.4 2.5 2.4 3.9 5.4 4.8 8.6.6 2.1.4 4.4 0 6.6-1.4 7.4-4.5 14.1-8.5 20.5-1.7 2.7-3.5 5.4-5.4 8-1 1.3-.8 1.8.8 2.4 2.9.9 5.7 2.1 8.4 3.5 1.4.7 2.3 2 3.4 3 .5.5.5 1.2.5 1.9h-176c0-2 0-3.9-.1-5.9 0-.5 0-1.1.4-1.5.5-.6.9-1.3.9-2.1 0-.5.4-.8.7-1.2 1.3-1.9 3.1-3.2 4.8-4.8 3-2.8 6.3-4.9 10-6.4 2.5-1 2.5-1 3-3.6v-.2c.2-.6.1-1.1-.7-1.2-1.3-.2-2.1-1.1-2.3-2.3-.3-1.7-.4-3.4.4-5 1.6-3.5 4-6.3 7.1-8.5.9-.6 1.5-1.2 1.2-2.4-.2-.7 0-1.5.2-2.2.7-1.9 1.5-3.7 2.8-5.1 2.8-3 5.6-6.1 9.4-7.9 1.6-.8 2.6-1.8 2.7-3.6 0-.6.8-1.5.1-1.9-.6-.3-1.2.5-1.7.9l-.2.2c-2.2 2-4.5 3.8-7.2 5.1-3.5 1.7-7 3.4-10.6 5-1.5.7-3.1 1.4-4.6 2.1-.8.3-1.6.6-2.5.5-.7-.1-1.1-.4-1-1.1 0-.4.1-.7.2-1.1.5-2.5 1.5-4.8 2.5-7.2.9-2.1 2.2-4 3.2-6 .9-1.7 2-3.1 3.3-4.4.8-.8 1.5-1.6 2.4-2.3 1.1-1 2.3-2 3.5-3 1.8-1.3 3.6-2.5 5.4-3.8 1.7-1.2 3.3-2.4 5.1-3.5 1.7-1.1 3.1-2.5 4.7-3.6 1.3-.9 2.3-2.3 3.9-2.8.4-.1.7-.4.9-.8.5-1.1 1-2.1 1-3.4-.2-3.3-.1-6.5 1-9.7.1-.3.2-.6.2-.9-.2-1.9.7-3.5 1.4-5.1.3-.9.9-1.5 1.3-2.3.3-.6.4-1.1-.2-1.7-1.3-1.3-2-3.1-2.1-4.8-.1-3-.3-6 .3-9 .2-.9.5-1.7.7-2.6.1-.4.1-.7-.2-1-.3-.2-.6 0-.9.1-1.7.7-3.4 1.3-5.2 2-6.3 2.4-12.6 4.7-19.1 6.7-5.6 1.8-11.2 3.3-16.9 4.8-3.5.9-7 1.7-10.5 2.5-4.5 1-9.1 1.8-13.7 2.6-.8.1-1.6.2-2.4 0-1.1-.2-2.2-.2-3.3-.2-1.1 0-2.1.1-3.2 0-1.6-.1-3.1-.4-4-1.9-1.3-2.1-2-4.4-1.5-7 .7-3.8 2.7-6.7 5.5-9.2.8-.7 1.5-1.5 2-2.4.9-1.6 1.8-3.2 2.9-4.7 1.8-2.4 3.5-5 5.4-7.4 1.7-2 3.3-4.1 5.1-6 2-2.1 3.7-4.3 5.6-6.4 3.1-3.4 6.4-6.7 9.8-9.8.7-.6 1.6-1.1 2.1-2.1-.3 0-.5-.1-.8-.1-1.5-.2-1.7-.4-1.8-1.8 0-.7-.1-1.4 0-2.1.3-1.5 0-3.2 1.7-4.2.3-.2.2-.4.1-.7-.1-.3-.2-.6-.2-.9-.2-1.6.5-2.4 2.1-2.4.4 0 .9.3 1.4 0-.1-.3-.2-.5-.3-.6-2.1-3.1.7-8.3 4.8-7.9.7.1 1.5 0 2.2 0 1.8 0 3.1.9 4.3 2.1.3.3.4.6.7.9.4.5.8.5 1-.2.4-1.1 1.2-1.8 2.2-2.4 1.2-.8 2.6-1.2 4-1.5 2.1-.4 2.6-1.2 1.9-3.3-1.7-5.1-2.3-10.4-2.5-15.7-.1-2.3.1-4.6.3-6.9.2-1.8.3-3.6.5-5.3.3-2.3.7-4.7 1.1-7 .6-3.4 1.1-6.7 2-10.1 1-3.6 1.9-7.1 3.1-10.6.3-.9.1-1.6-.7-2.2-.7-.5-1.4-1.1-2.1-1.7-1.6-1.3-1.9-2.7-.9-4.5.2-.4.4-.7.4-1.2.2-1.4.5-2.8.7-4.2.4-2.8 1.7-5.6 1.2-8.5 0-.2.1-.4.1-.6.1-2 .8-3.8 1.1-5.7.6-3.8 1.8-7.4 2.6-11.1.2-.9.9-1.2 1.7-.9.3.1.7.3 1 .5.6.5 1.1.4 1.6-.2.2-.3.5-.6.7-.9.9-1 1.8-1.1 3-.5l.9.6c.8.6 1 .6 1.5-.2 1.3-1.8 2.7-3.3 4.2-5h8.9c.3.8-.3 1-.8 1.3-3.1 1.7-5.7 3.9-8 6.5-.8.9-.8 1.3 0 2.2.2.2.4.4.6.5 1.4 1 2.9 1.8 4.2 3 .5.5 1.1.4 1.5-.2.2-.2.3-.4.5-.6 1.7-2.3 3.4-4.5 5.4-6.5 2.3-2.3 4.8-4.2 7.4-6.2H197c.4.7 1.1 1.1 1.9 1.2 3.3.6 6.5 1.2 9.8 1.6 1.6.2 3.1.6 4.6 1 5.8 1.4 11.6 2.6 17.4 4.1 7.4 2 14.7 4.2 21.7 7.4 3 1.4 5.9 2.8 8.5 4.9 1.6 1.3 3.4 2.3 5.1 3.4.7.4 1.2 1 1.9 1.4 2.1 1.6 4.3 3.1 6.3 5 1.1 1.1 2.7 1 4.2 1.2 1.4.1 2.7 0 4.1-.1 1.7-.2 3.5-.3 5.2-.4 6.1-.2 12.2-.9 18.2-1.8l10.6-1.8c4.1-.7 8.2-1.6 12.3-2.3 5.7-.9 11.4-1.8 17.2-2.4 4.6-.5 9.1-.7 13.7-1 4.7-.3 9.4-.1 14.1-.2.8 0 1.6-.1 2.4-.2 1.1-.2 2.3-.2 3.5 0 .9.2 1.9.3 2.8.2 4-.2 8 .2 12 .4 2.6.1 5.2.6 7.8 1 .9.1 1.8.1 2.6-.1 6-1.6 12-2.9 18.1-3.9 3.8-.6 7.7-1.4 11.6-1.7 4.5-.3 8.9-.5 13.4-.4 2.3.1 4.5-.1 6.8.3 3.4.6 6.5 1.7 8.9 4.3 1.8 1.9 2.8 4.2 3.1 6.8v.9c0 .2 0 .4-.4.6-.5-.5-.5-1.2-.6-1.9-.2-1.2-.8-2.1-1.3-3.2-2.1-3.9-5.7-5-9.7-5.3-2.8-.2-5.6 0-8.4-.1-2-.1-3.9.5-5.8.9-3.8.7-7.5 1.5-11.2 2.7-2.3.7-4.6 1.4-6.9 2.2-.5.2-1.1.3-1.5.8.2.5.6.4.9.4h2.8c6.9-.1 13.6.7 20.4 2 4.8.9 9.5 2.1 14.1 3.5 3.7 1.1 7.4 2.2 10.7 4.2 2.3 1.4 4.9 2.2 6.8 4.2.5.5 1 .9 1.3 1.6.1.2.1.4-.1.6-.2.1-.4 0-.6-.1-.5-.6-1.1-1.1-1.7-1.7-1.3-1.2-2.8-2.1-4.5-2.6-2.3-.7-4.3-2-6.7-2.2-.3 0-.6-.2-.9-.4-1-.6-2-.8-3.2-.8-.8 0-1.6-.1-2.3-.6-.6-.4-1.3-.6-2-.6-2-.1-3.8-.7-5.7-1.2-.3-.1-.5-.1-.8-.1-3.4.1-6.6-1.1-10-1.5-1.5-.2-3.1-.3-4.6-.4-4.4-.1-8.7-.7-13.1-.4-4.3.3-8.6.4-12.9 1.4-1.6.4-3.3.6-5 .8l-1.2.3c-3.7 1.5-7.3 3-11 4.4-1.1.4-1.7 1-1.9 2.3-.1.9-.4 1.8-.6 2.8-.3 1.6-.8 3.1-1.7 4.5-1.1 1.7-2 3.5-3 5.2-1.1 2-2.8 3.5-4.4 4.9-2 1.7-4.3 3-6.7 4.2-2.5 1.3-5.2 2.4-8 3-2.2.5-4.4 1.1-6.8 1-2.9-.2-5.9-.1-8.9-.1-1.2 0-2.4.1-3.6.1-3.7 0-7.2-.8-10.8-1.5-3.6-.6-7.1-1.6-10.5-2.8-3.1-1.1-6.2-2.3-9.2-3.7-2.9-1.3-5.7-2.7-8.6-4.1-3.5-1.8-6.9-3.7-10.3-5.5-1.9-1-3.9-1.9-6.1-1.8-1.3.1-2.6-.3-3.9-.4-.3 0-.6-.1-.9-.1-.6 0-1.4-.3-1.8.3-.4.6.3 1.1.6 1.7 3.1 5.6 5.6 11.6 7 17.9.6 2.5 1 5.1 1.5 7.6.2 1.2.7 2.3.7 3.6 0 .8.7 1.5 1.4 1.8 1.9 1 3.4 2.6 5.1 4 3 2.5 5.9 4.9 8.5 7.8 1.6 1.8 3.4 3.5 4.7 5.5.5.7 1.2 1.2 2 1.4 3.6 1 7.1 1.8 10.8 2.6 6.7 1.4 13.5 1.3 20.3 1.1 3.6-.1 7.2-.6 10.8-1 2.9-.4 5.8-1 8.7-1.6 2.5-.5 5-1.3 7.5-2 1.8-.5 3.5-1.1 5.3-1.6 1.4-.4 2.1-1.4 2.1-2.8 0-1.2.1-2.4 0-3.6-.1-1.8-.9-3.3-2-4.7-.6-.7-1.2-1.4-1.8-2.2-.3-.4-.8-.7-.8-1.4.6 0 1 .4 1.3.7 1.8 1.6 3.1 3.4 4 5.6.8 1.9 1.5 3.7 1.3 5.8-.1 1 .1 1.1 1.1.8 3.7-1.2 7.3-2.7 10.9-4.2 4.3-1.9 8.5-3.9 12.6-6.3 4.3-2.4 8.3-5.3 11.6-8.9 1.4-1.6 2.7-3.2 3.5-5.2.4-1.1.8-2.1 1-3.3.3-3.4-1.3-5.9-3.9-7.8-2-1.4-4.3-2.5-6.8-2.9-.5-.1-1-.3-1.5-.4-.2-.1-.5-.3-.4-.6.1-.3.4-.3.7-.3.6.1 1.2.1 1.7.3 4.7 1.4 8.9 3.4 11.2 8 1.2 2.4 1.1 4.8.5 7.4-.8 3.2-2.1 6.1-4 8.7-1.6 2.3-3.5 4.5-5.7 6.3-4.9 4-10.3 7.1-16 9.8-5.5 2.7-11.2 5-17 6.9-.9.3-1.8.7-2.7 1-.5.2-.8.5-1.1.8-1.6 2.1-3.5 3.9-5.6 5.6-.2.2-.5.4-.4.8.1.3.4.3.7.3 1.9.5 3.9.4 5.8.6l11.5 1.2c3.3.3 6.5.9 9.7 1.1 2.7.2 5.3.7 8 1.1 2.6.4 5.2.7 7.8 1 .8.1 1.7-.1 2.5-.2 4.5-.7 9-.6 13.5-1.3 2.4-.4 4.9-.7 7.3-1 2.6-.4 5.1-.8 7.7-1.1 1.7-.2 3.5-.4 5.1-.8 3.2-.8 6.4-1.2 9.6-2 3.7-.9 7.3-1.9 10.9-3.3 2.9-1.1 5.7-2.1 8.2-4 1.8-1.4 3.6-2.7 4.9-4.6 1.1-1.7 1-2.9-.4-4.7-1.7-2.1-4.1-2.1-6.4-2.4-.7-.1-1.5 0-2.2-.2-.2-.1-.4-.2-.4-.4 0-.3.3-.4.6-.4 3.7.5 7.6.4 10.9 2.6 1.1.7 1.8 1.6 2.1 2.8.7 2.5.4 4.8-1 7-1.3 1.9-2.9 3.6-4.9 4.8-3 1.9-6 3.9-9.3 5.4-3.6 1.7-7.1 3.5-10.8 4.9-3.9 1.4-7.6 3.1-11.6 4.2-1.9.5-3.9.9-5.9 1.4l-1.2.4c1.3.4 2.3.6 3.3.9 3.4.9 6.6 2.1 9.8 3.6 5.1 2.5 8.7 6.4 10.9 11.6.5 1.2.8 2.5-.2 3.7-.5-.4-.3-.8-.3-1.2.2-1.6-.4-2.8-1.4-4-3-3.5-6.7-6-11-7.5-3-1-6-1.9-9.2-2.2-3.7-.4-7.5-.2-11.2-.2-2 0-2.4.3-2.9 2.2-1.1 4.6-3.9 7.9-7.3 11-2.8 2.5-6.2 3.5-9.8 3.9-4.7.5-9.4 1.2-14.2.9-2.9-.2-5.9-.3-8.8-.3-2.3 0-4.5.3-6.8.6-.5.1-.9.1-1.4.1-3.8 0-7.6.1-11.4 0-2.6-.1-5.2-.4-7.9-.7-4.8-.4-9.5-1.3-14.2-2.1-2.6-.5-5.3-1.1-7.9-1.7-4.2-.9-8.2-2.2-12.4-3.3-4.9-1.3-9.7-3.2-14.5-4.9-2.5-.9-5-1.8-7.4-2.7-.6-.2-1.3-.2-1.9-.1-2.5.2-4.9-.4-7.4-.8-5.1-1-10.1-2.7-14.9-4.6-2.5-1-4.9-2.2-7.3-3.3-2.9-1.4-5.7-3.2-8.7-4.6-.2-.1-.4-.2-.5-.3-3.7-2.5-7.7-4.9-11.2-7.7-2.6-2-5.1-4.1-7.6-6.2-3.1-2.8-6-5.7-8.9-8.7-2.6-2.7-5-5.5-7.3-8.5-2.5-3.1-5-6.3-7.3-9.6-.6-.8-1.2-1.6-1.7-2.5-.5-.9-.9-1.8-1.8-2.3-.3-.2-.3-.5-.4-.8-.6-1.6-1.6-2.9-2.7-4.2l1.2 4.3c.7 2.5 1.4 5 1.9 7.5.2 1.2.5 2.5.6 3.7.4 2.9.7 5.8.7 8.7 0 1.3-.1 2.6 0 4 .3 5.6-.5 11.1-1.7 16.6-.4 2.2-.8 4.4-1.5 6.5-.1.1-.1.3-.1.5-.4 3.5-1.8 6.8-2.8 10.2-.3 1.1-.9 2.1-1.3 3.2-1.4 3.2-2.7 6.4-4.5 9.4-.8 1.3-1.5 2.7-2.1 4.1-1.1 2.3-2.6 4.4-4.3 6.2-1.4 1.5-2.8 3.1-4.7 3.9-.9.4-1.3 1.1-1.5 2.1-.9 4.2-2 8.4-3.4 12.5-.3.8-.2 1.5.4 2.2 3.6 3.6 6.4 7.8 9.6 11.7 2.2 2.7 3.9 5.8 5.9 8.6 2.5 3.6 4.7 7.5 7.4 11.1.7.9 1.2 2 1.8 3 .4.7.8 1.3 1.5 1.6 1.6.9 3.1 2 4.8 2.8 2.7 1.2 5.4 2.7 8.1 4 2.9 1.4 5.8 2.5 8.7 3.7 3.9 1.5 7.9 2.8 11.8 4 4.8 1.5 9.6 2.9 14.5 3.8 2.3.4 4.5 1.1 6.8 1.4 3.9.4 7.7 1.1 11.6 1.5 2.8.3 5.6.1 8.4.5 2.1.4 4.2-.2 6.3-.3 2.9-.2 5.8-.3 8.6-.9 6.4-1.3 12.7-2.7 18.8-4.8 3.7-1.3 7.3-2.8 10.8-4.4 4.9-2.1 9.6-4.6 14.2-7.2 4.8-2.8 9.6-5.5 13.7-9.3 1-.9 2.2-1.7 3.2-2.5 3.2-2.5 5.2-5.8 6.7-9.5 1.1-2.7 1-5.6.1-8.4-.4-1.1-.9-2.2-1.4-3.2-.6-1.4-1.5-2.5-2.9-3.2-.8-.4-1.6-1-2.2-1.7.3-.4.6-.3.8-.2 1.2.9 2.7 1.4 3.7 2.6.1.2.3.4.5.4 1.4.3 1.9 1.5 2.4 2.6.7 1.3 1.2 2.7 1.8 4 .1.3.2.7.2 1.1.2 4 0 7.9-1.5 11.7-.4 1-.4 1.9 0 2.9 1.2 3.9.8 7.6-1.7 10.8-1.6 2.1-3.4 4.1-5.3 5.8-.6.5-1.3.8-2 1.2-.9.5-1.7 1.1-2.4 2-.9 1.2-2.2 1.8-3.3 2.7l-5.4 3.6c-2.4 1.7-5 3.1-7.5 4.7-1.9 1.2-3.9 2.4-5.9 3.4-2.4 1.2-4.8 2.4-7.2 3.5-1.1.5-2.3 1-3.4 1.5.1.5.5.5.7.6 3.4.3 6.6 1.3 9.8 2.3 3.8 1.2 7.7 2.1 11.5 3.3 5.9 1.9 11.9 3.7 17.7 6 3.9 1.5 7.8 2.9 11.6 4.7 2.6 1.2 5.3 2.5 7.6 4.1 1.9 1.3 3.8 2.4 5.7 3.6 1.1.7 2.2 1.3 2.9 2.5.1.2.4.4.6.5 2.1.9 3.6 2.5 5.2 4.1 1.9.3 2.8.6 3.1 1.6zM208.2 47.3c-.4.4-.5 1-.4 1.6 0 1.2-.1 2.3-.3 3.5-.8 5.3-2.1 10.5-3.9 15.6-1.1 3.1-2.2 6.2-3 9.3-1 4.1-2.5 7.9-3.9 11.9-2.4 6.5-5.9 12.4-9.1 18.4-1 1.8-2.3 3.5-2.8 5.5-.6 2.2-1 4.5-1.1 6.9 0 .9.1 1 .9.7 3.6-1.4 7.3-2 11.1-1.9 1.1 0 1.9.5 2.6 1.2 1.5 1.6 2.6 3.5 3.3 5.5 1.2 3.4 1.4 7 1.7 10.6.2 3.2-.3 6.3-.8 9.4-.1.5-.2 1-.1 1.6.2.6.6.7 1.1.4.3-.2.6-.5.8-.8 2.2-2.5 4.6-4.9 6.7-7.6 1.9-2.5 3.4-5 4.2-8 .4-1.6.7-3.2 1.1-4.8 1.1-4.1 1.9-8.2 2.5-12.4.3-2.1.6-4.3.7-6.4.2-5.6-.1-11.2-.3-16.7 0-.2 0-.4-.1-.6-.7-3.1-.9-6.3-1.4-9.4-1-5.7-2.1-11.3-3.7-16.8-1.6-5.3-3.5-10.5-5.2-15.7 0-.5-.1-.9-.6-1zM191.4 240c-2.3-.1-4.4.1-6.4.5-3.2.5-6.4 1.1-9.6 1.9-4.5 1.2-8.9 2.5-13.3 4.1-4.1 1.5-8 3.4-12 5.3-.8.4-.9.6-.3 1.3.7.8 1.4 1.7 2.2 2.5 2.9 3 5.4 6.2 7.5 9.7 1 1.7 2.1 3.4 1.7 5.6-.1.4-.1.7-.2 1.1-.2.8.1 1.4.7 1.9.4.3.9.5 1.4.7 5.2 2 10.2 4.5 15 7.4.7.4 1.3.4 1.8-.2l.8-.8c2.9-3.8 6-7.3 8.7-11.2 3-4.2 5.8-8.6 8.3-13.1.6-1.1 1.1-2.2 1.4-3.4.9-4.5-.3-8.4-2.7-12.2-.3-.5-.8-.8-1.4-.9-1.2-.1-2.5-.3-3.6-.2zM307.2 46.2c.9.7 1.9.9 2.8 1.4 2.7 1.6 5.5 2.9 8.2 4.3 5.2 2.7 10.7 4.8 16.3 6.4 5.5 1.6 11.1 2.9 16.9 3.4 1.6.1 3.3 0 4.9.3 3.3.5 6.6.1 9.9-.2 1.8-.2 3.4-1 5.2-1.4 2.7-.5 4.9-1.9 7.1-3.3 1.6-1 2.8-2.4 4.1-3.7 2.1-2 4-4.2 5-7 .1-.3.3-.6.4-.9.9-1.8 1.7-3.7 1.9-5.8.2-1.9.1-2-1.6-1.4-2.3.8-4.6 1.5-7 2-4.3 1-8.5 1.8-12.9 2.2-2.8.2-5.5.9-8.3.8-4.4-.2-8.7 0-13.1.7-4.3.7-8.6 1.2-13 1.6-4 .3-8.1.7-12.1.6-4.5-.1-9 .3-13.4-.3-.4 0-.8 0-1.3.3zm-75.7-10.8c-.1 0-.5-.1-.6.3-.1.4.2.6.5.7 1.1.5 2.1 1.4 3.5 1.1.2 0 .4.1.5.3.3.8 1 .9 1.6 1.2 1.5.8 3.1 1.5 4.7 2.3 2.9 1.5 5.7 2.9 8.6 4.4 2.3 1.2 4.6 2.5 6.9 3.8 2.2 1.3 4.4 2.6 6.6 4 2.1 1.3 4.1 2.6 6.1 4 1.9 1.3 3.6 2.7 5.5 3.9 3.4 2.2 6.7 4.7 10 7.1 2.3 1.7 4.6 3.5 6.9 5.3.3.2.6.6 1 .4.4-.2.2-.7.3-1 .1-.8-.2-1.6-.3-2.3-.7-4.8-2.2-9.5-4.1-13.9-1.8-4.1-4.1-7.8-6.5-11.6-.7-1.1-1.5-1.5-2.7-1.7-3.2-.4-6.5-.9-9.7-1.4-6-1-12-2.1-18-3.2-4.1-.7-8.2-1.6-12.3-2.3-2.8-.4-5.5-1.2-8.5-1.4zm-55.1 60.8c0 2.3-.4 3.8-1 5.2-.2.4-.4.9-.8 1.1-.2.2-.5.2-.7.1-.2-.2-.3-.5-.2-.7.3-.6.5-1.3.9-1.9.6-.9.6-1.9.2-2.9-.9-2.4-2.3-4.5-3.8-6.5-.6-.9-1.2-.8-1.8.2-.7 1.1-1.2 2.3-1.8 3.5-.3.7-.8 1.3-.8 2.1 0 1.3-.2 2.6-.3 3.9-.2 1.8-.1 1.9 1.7 1.8 1.7-.1 3.1.2 4.4 1.4.3.3.6.5.6.9 0 1.4.5 2.8.5 4.2.1 3.2 1.9 5.6 3.3 8.3.4.8.8.7 1.4-.1.5-.7 1-1.5 1.5-2.2 1.2-2 2.4-3.9 2.7-6.3.2-2 .3-4.1.8-6.1.2-.8.5-1.6.6-2.4 1.2-6.8 2.7-13.5 4.2-20.3 1-4.6 2.4-9.1 3.4-13.8.8-4 1.4-8 1.9-12l.3-2.3c0-.4.1-.8-.3-1-.3-.2-.6 0-.9.2-1 .6-1.9 1.3-3 1.7-.5.2-.5.5-.5 1 .2 5 .2 10-.6 15-.2 1.4-.3 2.9-1.1 4.1-.8 1-1.2 2.2-1.6 3.4-.1.5-.3 1-.5 1.5-.4 1.3-1.3 2-2.7 2h-.8c-.7 0-1.4.1-1.9.7-.5.5-1.1.6-1.8.5-1.4-.2-2.3.5-3 1.6-1.2 1.7-2.3 3.4-3.5 5.1-.5.8-.5 1.1.2 1.8.3.3.6.4.9.7 2.4 1.7 3.6 4.2 3.9 6.5zm185 38.1c2.5.8 5.1 1.5 7.7 1.7 1.4.1 2.8 0 4.1.7.4.2.8.2 1.2.2 1.4.2 2.7.4 4.1.5 2.8.2 5.6.9 8.5.8 1.6-.1 3.2.2 4.7.4 3.7.5 7.4.3 11 .2 3.8-.2 7.7-.6 11.4-1.2 4.6-.8 9-2.1 12.6-5.3 1.8-1.6 3-3.5 3.8-5.7.4-1.1-.1-1.7-1.3-1.8h-.9c-3.1-.1-6.1.5-9.1.3h-.3c-4.8.8-9.6 1.9-14.3 3.1-5.1 1.4-10.3 2.9-15.5 4-3.4.7-6.8 1.3-10.3 1.8-4.9.7-9.9.6-14.8 0-.7-.1-1.7-.2-2.6.3zM47.5 153.4c2.4-1.7 4.8-3 7.2-4.4 4.6-2.6 9.4-5 14.1-7.3 2.8-1.4 5.7-2.8 8.5-4.2 1.2-.6 1.1-.8.6-2-.6-1.4-1.6-2.6-2.3-3.9-1.1-2.2-2.3-4.4-3.5-6.6-.5-.9-.6-.9-1.5-.4-.4.2-.8.6-1.2.7-.9.3-1.1 1-1 1.9 0 .6.3 1 .6 1.4.8 1.6.4 3.4-1.2 4.2-1.7.8-3.3 2.1-5.4 2-.6 0-.9.4-.8.9 0 .3.1.5.1.8.1 1.2-.3 1.5-1.5 1.4-.7-.1-1.5-.3-2.1-.5-1.1-.4-1.8 0-2.4.9-.3.4-.5.8-.7 1.2-1.2 2.2-2.3 4.5-3.5 6.7-1 1.8-1.9 3.6-3.3 5.2-.5.5-.7 1-.7 2zm58.1-48.9c-.1.1-.3.2-.5.3-2.6 1.8-5.4 3.2-8.3 4.5-1.6.7-1.7 1-1.3 2.7.9 3.5 2.6 6.7 4.2 9.8.3.5.8.9 1.3 1.4.4.4.8.4 1.3.2 1.8-.9 3.6-1.3 5.6-1.2 1.3.1 1.6-.4 1.1-1.6-1.5-3.5-1.6-7.1-1.9-10.8-.1-1.5-.3-2.9-.6-4.4-.2-.4-.3-.9-.9-.9zm165-74.9c.1-.2 0-.4-.1-.5-2.2-1.6-4.3-3.2-6.6-4.5-5.4-3-10.9-5.8-16.5-8.3-5.2-2.3-10.5-4.3-16.1-5.4-.3-.1-.6-.2-1.1 0 2.6 1.4 5.1 2.6 7.6 4 6.3 3.6 12.4 7.6 18.2 11.9.8.6 1.7 1.1 2.4 1.8.3.3.7.4 1.2.4 3.6-.1 7.1.2 10.7.6 0 .1.2.1.3 0zm-148.7 78.9c2-.1 3.4.7 4.6 1.5.9.6 1.8 1.3 1.8 2.6 0 .8.5.7 1 .4 1.2-.7 2.5-1.2 3.7-1.7.8-.3 1.7-.7 1.6-1.7 0-1.1-1-1.3-1.9-1.5-2.8-.7-5.6-1.3-8.2-2.7-2.3-1.2-4.8-2-6.7-3.8-.6-.5-1.1-1.2-1.8-1.5-.4-.2-.8-.6-1.3-.3s-.4.9-.3 1.3c.3 1.4.2 2.8.2 4.3v3c0 .8.3 1.4 1 1.6 1.1.3 2.1 1.1 3.3.5.2-.1.4-.4.5-.6.7-1.2 1.8-1.3 2.5-1.4zm-45 15.3c-.1.2-.2.3-.2.4 1.1 3.6 1.7 7.4 3.4 10.8.4.8.7.9 1.5.5 2.7-1.3 5.3-2.5 8-3.8.5-.2 1-.4.9-1.1-.1-.7-.5-.9-1.1-1.1-3.6-1-7-2.4-10.1-4.4-.7-.5-1.5-1.1-2.4-1.3zm49.3-9.4c-.7-.1-1.3 0-1.9.1-.7.2-1.4.2-2 .1-1.7-.3-3.4-.6-5.1-1.2-.6-.2-1.3-.8-1.9-.2-.6.6-.3 1.4-.2 2.1 0 .3.2.6.3.9 1 2.2 2.4 4.2 3.9 6.1.6.8 1.2 1.1 2.2 1.2 2.2.1 2.2.1 2.2-2.2 0-2.3.3-4.5 2.2-6.2.3-.1.4-.3.3-.7zm33.7 172.9c3.2-.5 6.3-1.1 9.4-1.2.2 0 .4-.1.5-.4.1-.2-.1-.4-.3-.5-.3-.2-.6-.4-1-.6-1.2-.7-2.5-1.1-3.8-1.5-2.9-1.1-5.9-2-8.9-2.7-.9-.2-1.6 0-2.1.9-.3.6-.8 1.1-1.3 1.6-.8.9-.7 1.3.5 1.7 2.1.7 4.1 1.4 6 2.4.3.1.7.3 1 .3zM305.4 91c-2.5-2.1-29.5-16.4-31.4-16.7 9.5 7.2 20.5 11.9 31.4 16.7zm54.7 15.7c.3.2.4.3.5.3 2.5.1 5-.2 7.4.2.2 0 .6 0 .7-.2.9-.8 2.5-.7 2.7-2.3 0-.2.3-.2.5-.3 1.3 0 1.8-1 2.4-2-4.6 1.4-9.2 3-14.2 4.3zM32.5 295.4c1.6-1.2 3.3-2.3 4.9-3.4 2.5-1.7 5.2-3 7.9-4.3.9-.4 1.9-.7 2.8-1 .2-.1.4-.2.3-.4-.1-.2-.3-.3-.5-.3-.3 0-.6.1-.9.2-1.6.4-3.1 1-4.6 1.7-3.9 1.6-7.3 3.9-9.9 7.5zM366.1 212c1.1.1 1.8 0 2.3-.6.6-.9 1.4-1.4 2.2-2 .9-.7 1.9-1.3 2.8-2 2.2-1.9 4.2-4 5.8-6.4.3-.5.6-1.1.5-1.8-4.2 4.5-8.2 9.2-13.6 12.8zm-185-95.4c-.8.6-1.2 1.2-1.7 1.8-.7.7-.6 1.5-.4 2.4.1.7.7.9 1.3.9.6 0 .5-.6.5-1 0-1.4-.1-2.6.3-4.1zM78.7 19.2c0 .5 0 .8.3 1 .3.2.6 0 .8-.2.5-.4.9-.9 1.3-1.4.3-.4.3-.8-.1-1.1-.4-.4-.8-.8-1.5-.8-.1 0-.3.2-.3.3-.1.9-.3 1.6-.5 2.2zm4.4 97.5c-.1-1.1-.5-2-1.4-3-.1 1.5.8 2.2 1.4 3zM413.5 268.8c2.8 1.9 5.1 4.4 6.6 7.3 1.8 3.3 3.5 6.6 4 10.4.3 2.2 0 4.3-.5 6.4-.3 1.1-1 2.1-1.9 2.9-.3.2-.6.5-1 .3s-.3-.6-.2-1c.5-1.7.5-3.4.4-5.2-.4-6.1-1.6-12-5.6-17-.5-.6-.8-1.3-1.3-1.8-.7-.7-.8-1.4-.5-2.3 0-.1 0 0 0 0z"/>
  <path d="M65.4 44.2c.1.3-.1.5-.2.6-3.9 3.5-7.6 7.3-11 11.4-3.4 4.2-6.9 8.4-10 12.8-2 2.9-4 5.8-5.2 9.2-.1.3-.3.7-.5 1-1.6 2.6-2.8 5.3-3.9 8.1-.8 2.1-2 3.9-2.8 6-.2.5-.5 1-.7 1.6-.7 2.8-1.8 5.4-2.2 8.2-.6 3.8-1.2 7.7-.3 11.6.4 1.9 1.7 3.4 2.5 5.1.3.6 1 .7 1.7.7h1.4c.2 0 .5 0 .5.3 0 .1-.1.3-.2.4-1.2.6-3.6.2-4.2-1-1.2-2.3-2.8-4.4-2.9-7.1 0-.5-.1-.9-.1-1.4-.1-2.7.4-5.4.6-8 0-.1 0-.2.1-.3 1.5-4.5 2.2-9.2 4.5-13.5.8-1.5 1.5-3.1 2.2-4.7l1.2-2.7c1.2-2.4 2.5-4.9 3.8-7.3 2.4-4.5 5.5-8.6 8.7-12.6 1-1.2 1.9-2.5 2.8-3.8 1.3-1.8 2.8-3.5 4.2-5.1 2.2-2.6 4.9-4.8 7.1-7.4.5-.6 1.3-1.1 1.9-1.6.2-.4.6-.7 1-.5z"/>
</svg>
